<?xml version="1.0" encoding="UTF-8" standalone="no"?>
<!DOCTYPE svg PUBLIC "-//W3C//DTD SVG 1.1//EN" "http://www.w3.org/Graphics/SVG/1.1/DTD/svg11.dtd">
<svg width="100%" height="100%" viewBox="0 0 358 358" version="1.1" xmlns="http://www.w3.org/2000/svg" xmlns:xlink="http://www.w3.org/1999/xlink" xml:space="preserve" xmlns:serif="http://www.serif.com/" style="fill-rule:evenodd;clip-rule:evenodd;stroke-linejoin:round;stroke-miterlimit:2;">
    <g transform="matrix(1,0,0,1,-420,-823)">
        <g>
            <g>
                <g transform="matrix(1,0,0,1,523.858,1022.37)">
                    <path d="M0,29.052L12.678,9.446C18.819,0.313 30.394,-17.797 38.663,-24.255C40.945,-25.672 43.071,-25.829 45.119,-24.805C53.544,-20.396 65.749,-1.262 71.89,8.422L84.015,-12.206C73.938,-27.562 59.843,-47.246 41.891,-47.246C30.237,-47.246 19.765,-36.854 10.708,-25.2L-0.079,-10.319L-12.835,9.446C-25.433,29.052 -38.11,48.422 -46.929,53.777L-46.929,53.698C-48.976,54.327 -51.103,54.249 -53.307,53.698C-58.74,50.785 -62.992,45.509 -65.984,39.603C-61.337,52.045 -55.432,64.644 -47.086,76.298C-30.63,73.305 -15.118,52.123 0,29.052M137.007,48.659C128.189,50.785 117.875,39.367 107.402,24.092L97.009,8.107L84.724,28.423L95.433,43.935C108.899,61.573 123.703,73.934 141.969,69.445C145.906,68.501 149.684,67.321 153.151,65.902C163.307,46.927 170.236,28.659 171.811,11.178C170.078,27.32 161.102,39.524 145.197,45.982L138.742,48.186C138.191,48.344 137.558,48.502 137.007,48.659" style="fill:rgb(150,216,216);"/>
                </g>
                <g transform="matrix(1,0,0,1,620.867,972.923)">
                    <path d="M0,57.556C13.936,33.777 37.164,-9.765 52.518,-26.381C75.117,-50.789 75.038,55.037 75.038,55.037C75.117,56.927 75.038,58.659 74.802,60.627C73.227,78.108 66.298,96.376 56.142,115.351C65.668,111.1 95.982,96.769 96.455,56.139L96.455,54.879C95.354,-26.381 81.809,-54.569 62.047,-54.334C37.085,-54.019 9.213,-1.341 -12.994,37.243L-25.119,57.871C-30.396,66.611 -46.614,94.092 -55.119,94.092C-61.26,94.092 -79.529,66.296 -84.332,58.895L-97.009,78.501C-76.772,108.659 -55.512,134.329 -25.513,97.005L-12.285,77.871L0,57.556ZM-90.946,170.548C-99.844,166.376 -108.741,160.943 -117.323,154.091C-127.166,146.219 -136.222,136.771 -144.096,125.746C-152.441,114.093 -158.347,101.494 -162.994,89.052C-163.544,87.951 -164.095,86.769 -164.568,85.588C-165.355,83.146 -166.064,81.021 -166.693,79.053C-167.087,77.636 -167.481,76.218 -167.796,74.801C-171.812,56.218 -168.742,31.335 -155.828,18.66C-153.229,16.139 -150.316,14.25 -147.167,13.147C-138.426,14.801 -124.017,36.769 -109.844,58.895L-97.088,39.13C-113.387,14.171 -130.158,-8.428 -148.112,-8.428C-155.907,-7.876 -165.276,-2.05 -170.867,3.461C-177.009,9.603 -181.654,16.691 -184.725,24.722C-190.237,39.761 -192.285,56.296 -190.001,72.123L-184.489,93.699C-159.686,165.194 -95.749,207.479 -22.521,207.479C75.117,207.479 156.142,128.502 156.142,28.739C156.142,-69.924 76.14,-149.923 -22.521,-149.923C-117.561,-149.923 -195.277,-75.751 -200.867,17.792C-193.308,-1.813 -180.553,-8.979 -170.079,-25.514C-148.033,-85.592 -90.237,-128.427 -22.521,-128.427C64.328,-128.427 134.644,-58.035 134.644,28.739C134.644,75.194 114.567,116.927 82.599,145.668C66.612,160.076 47.638,171.178 26.771,178.109L27.086,177.791C-9.451,189.603 -53.78,188.659 -91.733,170.156C-91.497,170.313 -91.183,170.392 -90.946,170.548" style="fill:rgb(48,138,173);"/>
                </g>
            </g>
            <g transform="matrix(1,0,0,1,568.976,1042.68)">
                <path d="M0,-12.125L0,-45.117C-2.048,-46.141 -4.174,-45.983 -6.456,-44.566L-6.456,-12.125C-13.307,-8.738 -10.945,1.734 -3.228,1.734C4.488,1.734 6.85,-8.738 0,-12.125M96.851,-45.983C89.133,-45.983 86.771,-35.511 93.623,-32.124L93.623,27.875L100.078,25.671L100.078,-32.124C107.007,-35.511 104.565,-45.983 96.851,-45.983M-92.048,33.387L-92.048,-16.928C-85.118,-20.313 -87.56,-30.787 -95.276,-30.787C-102.992,-30.787 -105.354,-20.313 -98.425,-16.928L-98.425,33.387C-96.221,33.938 -94.095,34.016 -92.048,33.387" style="fill:rgb(244,16,46);"/>
            </g>
        </g>
    </g>
</svg>
