<?xml version="1.0" encoding="UTF-8" standalone="no"?>
<!DOCTYPE svg PUBLIC "-//W3C//DTD SVG 1.1//EN" "http://www.w3.org/Graphics/SVG/1.1/DTD/svg11.dtd">
<svg width="100%" height="100%" viewBox="0 0 6630 4560" version="1.1" xmlns="http://www.w3.org/2000/svg" xmlns:xlink="http://www.w3.org/1999/xlink" xml:space="preserve" xmlns:serif="http://www.serif.com/" style="fill-rule:evenodd;clip-rule:evenodd;stroke-linecap:round;stroke-linejoin:round;stroke-miterlimit:1.5;">
    <g transform="matrix(1,0,0,1,-7400.04,-3509.84)">
        <g id="Template">
        </g>
        <g id="_-NextFlow-orchestrates-our-" serif:id="(NextFlow orchestrates our)">
        </g>
        <g id="EncyclopeDIA">
            <g transform="matrix(1,0,0,0.974727,0,173.608)">
                <rect x="8418.44" y="4578.18" width="5610.69" height="2291.17" style="fill:rgb(217,217,217);"/>
            </g>
            <g transform="matrix(0.443272,0,0,1.46629,7810.4,-3203.08)">
                <rect x="8418.44" y="4578.18" width="5610.69" height="2291.17" style="fill:rgb(217,217,217);"/>
            </g>
            <g transform="matrix(0.824034,0,0,0.682053,2468.66,3384.2)">
                <rect x="8418.44" y="4578.18" width="5610.69" height="2291.17" style="fill:rgb(217,217,217);"/>
            </g>
            <g transform="matrix(1,0,0,1,-502.355,534.677)">
                <g transform="matrix(0.949802,0,0,0.947442,532.505,523.434)">
                    <rect x="9049.94" y="3993.87" width="1126.77" height="2023.38" style="fill:rgb(12,21,37);stroke:rgb(12,21,37);stroke-width:17.57px;"/>
                </g>
                <g transform="matrix(1,0,0,1,-1.81899e-12,415.447)">
                    <g transform="matrix(0.991471,-0.130327,0.130327,0.991471,-538.268,1300)">
                        <g transform="matrix(0.418307,-0.612582,1.07704,0.735466,295.295,7573.82)">
                            <rect x="10209.9" y="4386.7" width="83.403" height="659.186" style="fill:white;stroke:rgb(12,21,37);stroke-width:15.71px;"/>
                        </g>
                        <g transform="matrix(0.418307,-0.612582,0.188264,0.128558,4194.08,10236.1)">
                            <rect x="10209.9" y="4386.7" width="83.403" height="659.186" style="fill:rgb(154,214,213);stroke:rgb(12,21,37);stroke-width:30.37px;"/>
                        </g>
                    </g>
                    <g transform="matrix(1.12946,0.360814,-0.304306,0.952574,433.225,-3309.59)">
                        <g transform="matrix(1.16668,0,-2.41823e-18,1.1449,-1550.98,-751.976)">
                            <path d="M9485.02,4542.06L9664.9,5189.67L9305.14,5189.67L9485.02,4542.06Z" style="fill:white;stroke:rgb(12,21,37);stroke-width:13.13px;"/>
                        </g>
                        <g transform="matrix(1,0,0,1,0,-283.847)">
                            <ellipse cx="9515" cy="5473.52" rx="209.862" ry="73.52" style="fill:rgb(154,214,213);stroke:rgb(12,21,37);stroke-width:15.2px;"/>
                        </g>
                    </g>
                    <g transform="matrix(1,0,0,1,1490.05,628.362)">
                        <text x="7739.31px" y="4710.85px" style="font-family:'Montserrat-Bold', 'Montserrat';font-weight:700;font-size:152.917px;fill:white;">MSc<tspan x="8072.21px 8172.37px 8276.51px 8365.66px 8462.15px 8530.35px " y="4710.85px 4710.85px 4710.85px 4710.85px 4710.85px 4710.85px ">onvert</tspan></text>
                    </g>
                </g>
            </g>
            <g transform="matrix(1,0,0,1,9723.7,-1035.81)">
                <text x="26.811px" y="4749.18px" style="font-family:'Montserrat-Regular', 'Montserrat';font-size:152.792px;fill:rgb(12,21,37);">Spec<tspan x="403.595px " y="4749.18px ">t</tspan>rum Libr<tspan x="1126.45px 1216.6px 1280.16px " y="4749.18px 4749.18px 4749.18px ">ary</tspan> .<tspan x="1433.11px " y="4749.18px ">d</tspan>lib</text>
            </g>
            <g transform="matrix(1,0,0,1,1903.14,760.484)">
                <g transform="matrix(1,0,0,1,250.493,415.356)">
                    <rect x="5533.47" y="5768.96" width="1147.78" height="930.072" style="fill:rgb(12,21,37);stroke:rgb(0,29,45);stroke-width:16.67px;"/>
                </g>
                <g transform="matrix(1,0,0,1,302.91,417.189)">
                    <text x="5624.25px" y="6053.15px" style="font-family:'Montserrat-Bold', 'Montserrat';font-weight:700;font-size:152.917px;fill:white;">Quantiﬁed</text>
                    <text x="5703.31px" y="6206.06px" style="font-family:'Montserrat-Bold', 'Montserrat';font-weight:700;font-size:152.917px;fill:rgb(154,214,213);">P<tspan x="5813.56px " y="6206.06px ">e</tspan>ptides</text>
                    <text x="5904.09px" y="6358.98px" style="font-family:'Montserrat-Bold', 'Montserrat';font-weight:700;font-size:152.917px;fill:white;">an<tspan x="6105.02px " y="6358.98px ">d</tspan></text>
                    <text x="5723.27px" y="6511.9px" style="font-family:'Montserrat-Bold', 'Montserrat';font-weight:700;font-size:152.917px;fill:rgb(154,214,213);">P<tspan x="5833.67px 5898.2px 5998.36px 6062.28px " y="6511.9px 6511.9px 6511.9px 6511.9px ">rote</tspan>ins</text>
                </g>
            </g>
            <g transform="matrix(3.18427,-0.000805298,-0.00256404,1.00668,6563.78,25.2583)">
                <path d="M542.479,5153.09L1107.5,5153.54" style="fill:none;"/>
                <g transform="matrix(0.314044,0.00025122,0.000799874,0.993361,265.41,3461.66)">
                    <path d="M2502.09,1615.01L2677.09,1702.51L2502.09,1790.01L2502.09,1615.01Z" style="fill:rgb(48,139,174);"/>
                    <path d="M877.926,1702.51L2537.09,1702.51" style="fill:none;stroke:rgb(48,139,174);stroke-width:58.33px;"/>
                </g>
            </g>
            <g transform="matrix(3.18427,-0.000805298,-0.00256404,1.00668,6563.78,1201.74)">
                <path d="M542.479,5153.09L1107.5,5153.54" style="fill:none;"/>
                <g transform="matrix(0.314044,0.00025122,0.000799874,0.993361,264.469,2293)">
                    <path d="M2502.09,2791.49L2677.09,2878.99L2502.09,2966.49L2502.09,2791.49Z" style="fill:rgb(48,139,174);"/>
                    <path d="M877.926,2878.99L2537.09,2878.99" style="fill:none;stroke:rgb(48,139,174);stroke-width:58.33px;"/>
                </g>
            </g>
            <g transform="matrix(-1.6315,-0.000805298,0.00131372,1.00668,13186.4,2239.86)">
                <path d="M542.479,5153.09L1107.5,5153.54" style="fill:none;"/>
                <g transform="matrix(-0.612932,-0.000490316,0.000799874,0.993361,3547.65,1264.39)">
                    <path d="M4161.23,4004.61L3986.22,3917.11L4161.23,3829.61L4161.23,4004.61Z" style="fill:rgb(48,139,174);"/>
                    <path d="M4908.05,3917.11L4126.23,3917.11" style="fill:none;stroke:rgb(48,139,174);stroke-width:58.33px;"/>
                </g>
            </g>
            <g transform="matrix(-1.6315,-0.000805298,0.00131372,1.00668,10670.5,2239.86)">
                <path d="M542.479,5153.09L1107.5,5153.54" style="fill:none;"/>
                <g transform="matrix(-0.612932,-0.000490316,0.000799874,0.993361,2005.61,1263.15)">
                    <path d="M1645.39,4004.61L1470.39,3917.11L1645.39,3829.61L1645.39,4004.61Z" style="fill:rgb(48,139,174);"/>
                    <path d="M2392.22,3917.11L1610.39,3917.11" style="fill:none;stroke:rgb(48,139,174);stroke-width:58.33px;"/>
                </g>
            </g>
            <g transform="matrix(1,0,0,1,-275.588,1193.95)">
                <g transform="matrix(1,0,0,1,24.3021,-169.813)">
                    <text x="7739.31px" y="4710.85px" style="font-family:'Montserrat-Regular', 'Montserrat';font-size:152.917px;fill:rgb(12,21,37);">GP<tspan x="7965.78px " y="4710.85px ">F</tspan> .r<tspan x="8195px 8283.69px " y="4710.85px 4710.85px ">aw</tspan></text>
                </g>
                <g transform="matrix(1,0,0,1,224.011,-101.018)">
                    <g transform="matrix(1,0,0,1,173.864,-34.9235)">
                        <path d="M8043.31,3925.88L7938.33,3784.06L7605.79,3784.06L7605.79,4289.98L8043.31,4289.98L8043.31,3925.88Z" style="fill:rgb(12,21,37);stroke:white;stroke-width:16.67px;"/>
                    </g>
                    <g transform="matrix(1,0,0,1,128.196,7.15822)">
                        <path d="M8043.31,3925.88L7938.33,3784.06L7605.79,3784.06L7605.79,4289.98L8043.31,4289.98L8043.31,3925.88Z" style="fill:rgb(12,21,37);stroke:white;stroke-width:16.67px;"/>
                    </g>
                    <g transform="matrix(1,0,0,1,84.0752,44.2798)">
                        <path d="M8043.31,3925.88L7938.33,3784.06L7605.79,3784.06L7605.79,4289.98L8043.31,4289.98L8043.31,3925.88Z" style="fill:rgb(12,21,37);stroke:white;stroke-width:16.67px;"/>
                    </g>
                    <g transform="matrix(1,0,0,1,38.4071,86.3614)">
                        <path d="M8043.31,3925.88L7938.33,3784.06L7605.79,3784.06L7605.79,4289.98L8043.31,4289.98L8043.31,3925.88Z" style="fill:rgb(12,21,37);stroke:white;stroke-width:16.67px;"/>
                    </g>
                    <g transform="matrix(1,0,0,1,-6.92249,128.038)">
                        <path d="M8043.31,3925.88L7938.33,3784.06L7605.79,3784.06L7605.79,4289.98L8043.31,4289.98L8043.31,3925.88Z" style="fill:rgb(12,21,37);stroke:white;stroke-width:16.67px;"/>
                    </g>
                    <g transform="matrix(1,0,0,1,-52.5905,170.12)">
                        <path d="M8043.31,3925.88L7938.33,3784.06L7605.79,3784.06L7605.79,4289.98L8043.31,4289.98L8043.31,3925.88Z" style="fill:rgb(12,21,37);stroke:white;stroke-width:16.67px;"/>
                    </g>
                </g>
            </g>
            <g transform="matrix(1,0,0,1,2484.09,1193.95)">
                <g transform="matrix(1,0,0,1,-72.3412,-169.813)">
                    <text x="7739.31px" y="4710.85px" style="font-family:'Montserrat-Regular', 'Montserrat';font-size:152.917px;fill:rgb(12,21,37);">GP<tspan x="7965.78px " y="4710.85px ">F</tspan> .mzML</text>
                </g>
                <g transform="matrix(1,0,0,1,224.011,-101.018)">
                    <g transform="matrix(1,0,0,1,173.864,-34.9235)">
                        <path d="M8043.31,3925.88L7938.33,3784.06L7605.79,3784.06L7605.79,4289.98L8043.31,4289.98L8043.31,3925.88Z" style="fill:rgb(12,21,37);stroke:white;stroke-width:16.67px;"/>
                    </g>
                    <g transform="matrix(1,0,0,1,128.196,7.15822)">
                        <path d="M8043.31,3925.88L7938.33,3784.06L7605.79,3784.06L7605.79,4289.98L8043.31,4289.98L8043.31,3925.88Z" style="fill:rgb(12,21,37);stroke:white;stroke-width:16.67px;"/>
                    </g>
                    <g transform="matrix(1,0,0,1,84.0752,44.2798)">
                        <path d="M8043.31,3925.88L7938.33,3784.06L7605.79,3784.06L7605.79,4289.98L8043.31,4289.98L8043.31,3925.88Z" style="fill:rgb(12,21,37);stroke:white;stroke-width:16.67px;"/>
                    </g>
                    <g transform="matrix(1,0,0,1,38.4071,86.3614)">
                        <path d="M8043.31,3925.88L7938.33,3784.06L7605.79,3784.06L7605.79,4289.98L8043.31,4289.98L8043.31,3925.88Z" style="fill:rgb(12,21,37);stroke:white;stroke-width:16.67px;"/>
                    </g>
                    <g transform="matrix(1,0,0,1,-6.92249,128.038)">
                        <path d="M8043.31,3925.88L7938.33,3784.06L7605.79,3784.06L7605.79,4289.98L8043.31,4289.98L8043.31,3925.88Z" style="fill:rgb(12,21,37);stroke:white;stroke-width:16.67px;"/>
                    </g>
                    <g transform="matrix(1,0,0,1,-52.5905,170.12)">
                        <path d="M8043.31,3925.88L7938.33,3784.06L7605.79,3784.06L7605.79,4289.98L8043.31,4289.98L8043.31,3925.88Z" style="fill:rgb(12,21,37);stroke:white;stroke-width:16.67px;"/>
                    </g>
                </g>
            </g>
            <g transform="matrix(1,0,0,1,-292.463,749.786)">
                <g transform="matrix(1,0,0,1,-54.7591,1277.22)">
                    <text x="7739.31px" y="4710.85px" style="font-family:'Montserrat-Regular', 'Montserrat';font-size:152.917px;fill:rgb(12,21,37);">Quant .r<tspan x="8358.77px 8447.47px " y="4710.85px 4710.85px ">aw</tspan></text>
                </g>
                <g transform="matrix(1,0,0,1,159.376,326.249)">
                    <g transform="matrix(1,0,0,1,281.822,1208.7)">
                        <path d="M8043.31,3925.88L7938.33,3784.06L7605.79,3784.06L7605.79,4289.98L8043.31,4289.98L8043.31,3925.88Z" style="fill:rgb(12,21,37);stroke:white;stroke-width:16.67px;"/>
                    </g>
                    <g transform="matrix(1,0,0,1,-143.383,-560.227)">
                        <text x="7722.15px" y="5855.83px" style="font-family:'Times-BoldItalic', 'Times';font-weight:700;font-style:italic;font-size:152.917px;fill:rgb(12,21,37);">N</text>
                        <text x="7870.82px" y="5855.83px" style="font-family:'AppleSymbols', 'Apple Symbols';font-size:152.917px;fill:rgb(12,21,37);">⨉</text>
                    </g>
                </g>
            </g>
            <g transform="matrix(1,0,0,1,2481.27,749.786)">
                <g transform="matrix(1,0,0,1,-151.402,1277.22)">
                    <text x="7739.31px" y="4710.85px" style="font-family:'Montserrat-Regular', 'Montserrat';font-size:152.917px;fill:rgb(12,21,37);">Quant .mzML</text>
                </g>
                <g transform="matrix(1,0,0,1,159.376,326.249)">
                    <g transform="matrix(1,0,0,1,281.822,1208.7)">
                        <path d="M8043.31,3925.88L7938.33,3784.06L7605.79,3784.06L7605.79,4289.98L8043.31,4289.98L8043.31,3925.88Z" style="fill:rgb(12,21,37);stroke:white;stroke-width:16.67px;"/>
                    </g>
                    <g transform="matrix(1,0,0,1,-143.383,-560.227)">
                        <text x="7722.15px" y="5855.83px" style="font-family:'Times-BoldItalic', 'Times';font-weight:700;font-style:italic;font-size:152.917px;fill:rgb(12,21,37);">N</text>
                        <text x="7870.82px" y="5855.83px" style="font-family:'AppleSymbols', 'Apple Symbols';font-size:152.917px;fill:rgb(12,21,37);">⨉</text>
                    </g>
                </g>
            </g>
            <g transform="matrix(1,0,0,1,16.0489,-11.9926)">
                <g transform="matrix(1,0,0,0.821832,30.4814,1189.83)">
                    <rect x="9874.37" y="7017.2" width="1377.94" height="1131.71" style="fill:rgb(12,21,37);stroke:rgb(12,21,37);stroke-width:18.21px;"/>
                </g>
                <g>
                    <g transform="matrix(1,0,0,1,102.159,-167.841)">
                        <text x="10170.5px" y="7964.63px" style="font-family:'Montserrat-Bold', 'Montserrat';font-weight:700;font-size:152.917px;fill:white;stroke:rgb(12,21,37);stroke-width:1px;stroke-linecap:butt;stroke-miterlimit:2;">MSstats</text>
                    </g>
                    <g>
                        <g transform="matrix(1,0,0,0.852578,0,1122.87)">
                            <rect x="10036.6" y="7063.99" width="1140.59" height="552.742" style="fill:rgb(12,21,37);stroke:white;stroke-width:17.94px;"/>
                        </g>
                        <g transform="matrix(1,0,0,0.852578,539,1122.87)">
                            <path d="M10254,7063.99L10254,7616.73" style="fill:none;stroke:white;stroke-width:17.94px;stroke-dasharray:17.94,35.87,0,0;"/>
                        </g>
                        <g transform="matrix(1,0,0,0.852578,170.333,1122.87)">
                            <path d="M10254,7063.99L10254,7616.73" style="fill:none;stroke:white;stroke-width:17.94px;stroke-dasharray:17.94,35.87,0,0;"/>
                        </g>
                        <path d="M10121,7435.02L10243.1,7405.02L10365.3,7451.83L10487.4,7345.02L10609.6,7375.02L10731.7,7360.1L10853.8,7267.39L10976,7237.39L11098.1,7221.82" style="fill:none;stroke:rgb(154,214,213);stroke-width:16.67px;"/>
                        <g transform="matrix(1.80556,0,0,1.94939,-8112.19,-6844.2)">
                            <ellipse cx="10098.3" cy="7324.97" rx="16.615" ry="15.389" style="fill:rgb(154,214,213);"/>
                        </g>
                        <g transform="matrix(1.80556,0,0,1.94939,-7990.06,-6874.2)">
                            <ellipse cx="10098.3" cy="7324.97" rx="16.615" ry="15.389" style="fill:rgb(154,214,213);"/>
                        </g>
                        <g transform="matrix(1.80556,0,0,1.94939,-7867.92,-6827.38)">
                            <ellipse cx="10098.3" cy="7324.97" rx="16.615" ry="15.389" style="fill:rgb(154,214,213);"/>
                        </g>
                        <g transform="matrix(1.80556,0,0,1.94939,-7745.78,-6934.2)">
                            <ellipse cx="10098.3" cy="7324.97" rx="16.615" ry="15.389" style="fill:rgb(154,214,213);"/>
                        </g>
                        <g transform="matrix(1.80556,0,0,1.94939,-7623.64,-6904.2)">
                            <ellipse cx="10098.3" cy="7324.97" rx="16.615" ry="15.389" style="fill:rgb(154,214,213);"/>
                        </g>
                        <g transform="matrix(1.80556,0,0,1.94939,-7501.5,-6919.11)">
                            <ellipse cx="10098.3" cy="7324.97" rx="16.615" ry="15.389" style="fill:rgb(154,214,213);"/>
                        </g>
                        <g transform="matrix(1.80556,0,0,1.94939,-7379.37,-7011.83)">
                            <ellipse cx="10098.3" cy="7324.97" rx="16.615" ry="15.389" style="fill:rgb(154,214,213);"/>
                        </g>
                        <g transform="matrix(1.80556,0,0,1.94939,-7257.23,-7041.83)">
                            <ellipse cx="10098.3" cy="7324.97" rx="16.615" ry="15.389" style="fill:rgb(154,214,213);"/>
                        </g>
                        <g transform="matrix(1.80556,0,0,1.94939,-7135.09,-7057.39)">
                            <ellipse cx="10098.3" cy="7324.97" rx="16.615" ry="15.389" style="fill:rgb(154,214,213);"/>
                        </g>
                    </g>
                </g>
            </g>
            <g transform="matrix(1,0,0,1,-83.8767,194.269)">
                <text x="8549.95px" y="4585.28px" style="font-family:'Montserrat-BoldItalic', 'Montserrat';font-weight:700;font-style:italic;font-size:152.917px;fill:rgb(12,21,37);stroke:rgb(12,21,37);stroke-width:1px;stroke-linecap:butt;stroke-miterlimit:2;">Ne<tspan x="8767.24px " y="4585.28px ">x</tspan>tFlo<tspan x="9166.2px " y="4585.28px ">w</tspan> on A<tspan x="9713.64px 9889.19px " y="4585.28px 4585.28px ">WS</tspan> Bat<tspan x="10316.4px 10406.2px " y="4585.28px 4585.28px ">ch</tspan></text>
            </g>
        </g>
        <g id="Workflow">
            <g transform="matrix(1,0,0,1,455.279,0)">
                <g transform="matrix(1.19595,0,0,0.967978,-2494.06,699.621)">
                    <rect x="11717.9" y="4279.49" width="1140.39" height="1980.46" style="fill:rgb(12,21,37);stroke:rgb(12,21,37);stroke-width:15.32px;"/>
                </g>
                <g transform="matrix(1,0,0,1,-86.2513,645.565)">
                    <g>
                        <rect x="12137.5" y="4816.76" width="334.638" height="134.932" style="fill:white;"/>
                        <g transform="matrix(1.43017,0,0,1,-5302.4,402.478)">
                            <rect x="12137.5" y="4816.76" width="334.638" height="134.932" style="fill:white;"/>
                        </g>
                        <g transform="matrix(32.0806,3.36396e-32,1.70674e-32,32.0806,11903.1,4662.15)">
                            <path id="Book-icon" serif:id="Book icon" d="M6.5,1C4.58,1 3,2.58 3,4.5L3,19.5C3,21.42 4.58,23 6.5,23L20,23C20.552,23 21,22.552 21,22L21,2C21,1.448 20.552,1 20,1L6.5,1ZM19,18L6.5,18C5.684,18 5.011,18.667 5,19.481L5,19.5C5,20.323 5.677,21 6.5,21C6.5,21 19,21 19,21L19,18ZM8.436,5.781L8.436,8.016L16.778,8.016L16.778,5.781L8.436,5.781Z" style="fill:rgb(48,139,174);stroke:white;stroke-width:0.03px;stroke-linecap:butt;stroke-miterlimit:2;"/>
                        </g>
                    </g>
                    <g transform="matrix(1,0,0,1,3982.14,874.093)">
                        <text x="7739.31px" y="4710.85px" style="font-family:'Montserrat-Bold', 'Montserrat';font-weight:700;font-size:152.917px;fill:white;">En<tspan x="7948.5px 8037.65px 8126.8px 8216.56px " y="4710.85px 4710.85px 4710.85px 4710.85px ">cycl</tspan>opeDIA</text>
                    </g>
                </g>
            </g>
            <g transform="matrix(1,0,0,1,11910.9,-2650.86)">
                <g transform="matrix(1,0,0,1,-207.551,334.495)">
                    <g>
                        <g transform="matrix(1,0,0,1,0,620.268)">
                            <path d="M485.562,5590.64L1421.95,5590.64L1421.95,6194.07C1421.95,6238.34 1212.16,6274.28 953.757,6274.28C695.353,6274.28 485.562,6238.34 485.562,6194.07L485.562,5590.64Z" style="fill:rgb(154,214,213);stroke:rgb(12,21,37);stroke-width:16.67px;"/>
                        </g>
                        <g transform="matrix(1,0,0,1,0,12)">
                            <ellipse cx="953.757" cy="6194.07" rx="468.196" ry="80.21" style="fill:rgb(154,214,213);stroke:rgb(12,21,37);stroke-width:16.67px;"/>
                        </g>
                    </g>
                    <g transform="matrix(1,0,0,1,-17.6046,0)">
                        <g transform="matrix(1.22336,0,0,1,-202.83,5.4518)">
                            <path d="M646.071,6438.57L646.071,6811.86L1273.54,6811.86" style="fill:none;stroke:rgb(12,21,37);stroke-width:14.92px;"/>
                        </g>
                        <g transform="matrix(1,0,0,1.24828,-4692.91,-980.876)">
                            <path d="M5336.74,6247.16C5336.74,6247.16 5453.55,6206.19 5502.97,6157.51C5552.38,6108.82 5591.07,5955.53 5633.23,5955.08C5675.38,5954.63 5712.5,6108.82 5758.3,6157.51C5803.19,6205.23 5908,6247.16 5908,6247.16" style="fill:none;stroke:rgb(12,21,37);stroke-width:14.74px;"/>
                        </g>
                        <g transform="matrix(1,0,0,0.90586,-4692.91,1158.26)">
                            <path d="M5336.74,6247.16C5336.74,6247.16 5453.55,6206.19 5502.97,6157.51C5552.38,6108.82 5591.07,5955.53 5633.23,5955.08C5675.38,5954.63 5712.5,6108.82 5758.3,6157.51C5803.19,6205.23 5908,6247.16 5908,6247.16" style="fill:none;stroke:rgb(0,29,45);stroke-width:17.47px;"/>
                        </g>
                        <g transform="matrix(1,0,0,0.589158,-4692.91,3136.75)">
                            <path d="M5336.74,6247.16C5336.74,6247.16 5453.55,6206.19 5502.97,6157.51C5552.38,6108.82 5591.07,5955.53 5633.23,5955.08C5675.38,5954.63 5712.5,6108.82 5758.3,6157.51C5803.19,6205.23 5908,6247.16 5908,6247.16" style="fill:none;stroke:rgb(0,29,45);stroke-width:20.31px;"/>
                        </g>
                        <g transform="matrix(1,0,0,0.323835,-4692.91,4794.27)">
                            <path d="M5336.74,6247.16C5336.74,6247.16 5453.55,6206.19 5502.97,6157.51C5552.38,6108.82 5591.07,5955.53 5633.23,5955.08C5675.38,5954.63 5712.5,6108.82 5758.3,6157.51C5803.19,6205.23 5908,6247.16 5908,6247.16" style="fill:none;stroke:rgb(0,29,45);stroke-width:22.42px;"/>
                        </g>
                        <g transform="matrix(1,0,0,1,-237.206,55.6068)">
                            <text x="807.337px" y="6373.41px" style="font-family:'Montserrat-Regular', 'Montserrat';font-size:152.792px;fill:rgb(12,21,37);">P<tspan x="915.513px 1017.73px 1122.39px " y="6373.41px 6373.41px 6373.41px ">EPT</tspan>IDEK</text>
                        </g>
                    </g>
                </g>
                <g transform="matrix(1,0,0,1,-78.4114,1615.05)">
                    <text x="-181.291px" y="4749.18px" style="font-family:'Montserrat-Regular', 'Montserrat';font-size:152.792px;fill:rgb(12,21,37);">Chr<tspan x="91.289px " y="4749.18px ">o</tspan>mat<tspan x="498.479px " y="4749.18px ">o</tspan>gr<tspan x="758.988px " y="4749.18px ">a</tspan>m Libr<tspan x="1345.86px 1436.01px 1499.57px " y="4749.18px 4749.18px 4749.18px ">ary</tspan> .<tspan x="1652.51px " y="4749.18px ">e</tspan>lib</text>
                </g>
            </g>
            <g transform="matrix(1,0,0,1,9648.11,-2316.36)">
                <g>
                    <g transform="matrix(1,0,0,1,0,620.268)">
                        <path d="M485.562,5590.64L1421.95,5590.64L1421.95,6194.07C1421.95,6238.34 1212.16,6274.28 953.757,6274.28C695.353,6274.28 485.562,6238.34 485.562,6194.07L485.562,5590.64Z" style="fill:rgb(154,214,213);stroke:rgb(12,21,37);stroke-width:16.67px;"/>
                    </g>
                    <g transform="matrix(1,0,0,1,0,12)">
                        <ellipse cx="953.757" cy="6194.07" rx="468.196" ry="80.21" style="fill:rgb(154,214,213);stroke:rgb(12,21,37);stroke-width:16.67px;"/>
                    </g>
                </g>
                <g transform="matrix(1,0,0,1,-17.6046,0)">
                    <g transform="matrix(1.22336,0,0,1,-202.83,5.4518)">
                        <path d="M646.071,6438.57L646.071,6811.86L1273.54,6811.86" style="fill:none;stroke:rgb(12,21,37);stroke-width:14.92px;"/>
                    </g>
                    <g transform="matrix(1,0,0,1,-237.206,55.6068)">
                        <text x="807.337px" y="6373.41px" style="font-family:'Montserrat-Regular', 'Montserrat';font-size:152.792px;fill:rgb(12,21,37);">P<tspan x="915.513px 1017.73px 1122.39px " y="6373.41px 6373.41px 6373.41px ">EPT</tspan>IDEK</text>
                    </g>
                </g>
            </g>
            <g transform="matrix(3.18427,-0.000805298,-0.00256404,1.00668,9361.42,1201.74)">
                <g transform="matrix(0.314044,0.00025122,0.000799874,0.993361,-614.113,2292.29)">
                    <path d="M5344.57,3381.12L5257.07,3556.12L5169.57,3381.12L5344.57,3381.12Z" style="fill:rgb(48,139,174);"/>
                    <path d="M3675.57,2878.99L5257.07,2878.99L5257.07,3416.12" style="fill:none;stroke:rgb(48,139,174);stroke-width:58.33px;"/>
                </g>
            </g>
            <g transform="matrix(3.18427,0.000805298,-0.00256404,-1.00668,9361.42,10399.4)">
                <g transform="matrix(0.314044,0.00025122,-0.000799874,-0.993361,-610.448,6843.37)">
                    <path d="M5162.86,1295.79L5247.46,1119.37L5337.83,1292.91L5162.86,1295.79Z" style="fill:rgb(48,139,174);"/>
                    <path d="M3675.57,1702.51L5257.07,1702.51C5257.07,1702.51 5252.61,1431.88 5249.77,1259.36" style="fill:none;stroke:rgb(48,139,174);stroke-width:58.33px;"/>
                </g>
            </g>
            <g transform="matrix(0.412049,0.000104207,0.00452238,1.77556,10939.8,-4966.52)">
                <path d="M542.479,5153.09L1039.14,5153.49L1036.59,5732.75" style="fill:none;stroke:rgb(48,139,174);stroke-width:45.23px;"/>
            </g>
            <path d="M13237.8,4193.84L13808.1,4193.84L13808.1,6388.83L12657.1,6388.83" style="fill:none;stroke:rgb(48,139,174);stroke-width:58.33px;"/>
            <g transform="matrix(1,0,0,0.534252,0,2096.31)">
                <path d="M10310.8,4500.95L10310.8,4253.33" style="fill:none;stroke:rgb(12,21,37);stroke-width:20.79px;"/>
            </g>
            <g transform="matrix(1,0,0,0.620121,150.059,1709.82)">
                <path d="M10310.8,4500.95L10310.8,4253.33" style="fill:none;stroke:rgb(12,21,37);stroke-width:20.03px;"/>
            </g>
            <g transform="matrix(1,0,0,1.24024,242.953,-1081.32)">
                <path d="M10310.8,4500.95L10310.8,4253.33" style="fill:none;stroke:rgb(12,21,37);stroke-width:14.79px;"/>
            </g>
            <g transform="matrix(1,0,0,1.0685,84.2366,-308.331)">
                <path d="M10310.8,4500.95L10310.8,4253.33" style="fill:none;stroke:rgb(12,21,37);stroke-width:16.11px;"/>
            </g>
            <g transform="matrix(1,0,0,0.302625,291.054,3138.85)">
                <path d="M10310.8,4500.95L10310.8,4253.33" style="fill:none;stroke:rgb(12,21,37);stroke-width:22.56px;"/>
            </g>
            <g transform="matrix(1,0,0,0.884572,399.43,519.534)">
                <path d="M10310.8,4500.95L10310.8,4253.33" style="fill:none;stroke:rgb(12,21,37);stroke-width:17.65px;"/>
            </g>
            <g transform="matrix(1,0,0,0.615242,529.736,1731.78)">
                <path d="M10310.8,4500.95L10310.8,4253.33" style="fill:none;stroke:rgb(12,21,37);stroke-width:20.08px;"/>
            </g>
            <g transform="matrix(1,0,0,0.302625,616.675,3138.85)">
                <path d="M10310.8,4500.95L10310.8,4253.33" style="fill:none;stroke:rgb(12,21,37);stroke-width:22.56px;"/>
            </g>
            <g transform="matrix(1,0,0,1,56.4452,-23.5455)">
                <g transform="matrix(1,0,0,1,4834.32,3347.04)">
                    <path d="M8043.31,3925.88L7938.33,3784.06L7605.79,3784.06L7605.79,4289.98L8043.31,4289.98L8043.31,3925.88Z" style="fill:rgb(12,21,37);stroke:white;stroke-width:16.67px;"/>
                </g>
                <g transform="matrix(1,0,0,1,4763.4,3413.48)">
                    <path d="M8043.31,3925.88L7938.33,3784.06L7605.79,3784.06L7605.79,4289.98L8043.31,4289.98L8043.31,3925.88Z" style="fill:rgb(12,21,37);stroke:white;stroke-width:16.67px;"/>
                </g>
            </g>
            <g transform="matrix(1,0,0,1,-72.579,-47.6997)">
                <text x="12268.5px" y="7907.58px" style="font-family:'Montserrat-Regular', 'Montserrat';font-size:152.917px;fill:rgb(12,21,37);stroke:rgb(12,21,37);stroke-width:1px;stroke-linecap:butt;stroke-miterlimit:2;">P<tspan x="12376.3px " y="7907.58px ">e</tspan>ptides .<tspan x="13017.7px " y="7907.58px ">t</tspan>xt</text>
                <text x="12268.5px" y="8060.5px" style="font-family:'Montserrat-Regular', 'Montserrat';font-size:152.917px;fill:rgb(12,21,37);stroke:rgb(12,21,37);stroke-width:1px;stroke-linecap:butt;stroke-miterlimit:2;">P<tspan x="12374.8px 12434.1px 12530px 12589.2px " y="8060.5px 8060.5px 8060.5px 8060.5px ">rote</tspan>ins .<tspan x="12972.3px " y="8060.5px ">t</tspan>xt</text>
            </g>
            <g transform="matrix(1,0,0,1,-229.623,-1677.21)">
                <text x="8881.11px" y="6634.36px" style="font-family:'Montserrat-BoldItalic', 'Montserrat';font-weight:700;font-style:italic;font-size:122.083px;fill:white;">Doc<tspan x="9133.46px 9209.39px " y="6634.36px 6634.36px ">ke</tspan>r</text>
            </g>
            <g transform="matrix(1,0,0,1,3146.19,-1677.21)">
                <text x="8881.11px" y="6634.36px" style="font-family:'Montserrat-BoldItalic', 'Montserrat';font-weight:700;font-style:italic;font-size:122.083px;fill:white;">Doc<tspan x="9133.46px 9209.39px " y="6634.36px 6634.36px ">ke</tspan>r</text>
            </g>
            <g transform="matrix(1,0,0,1,1068.87,433.179)">
                <text x="8881.11px" y="6634.36px" style="font-family:'Montserrat-BoldItalic', 'Montserrat';font-weight:700;font-style:italic;font-size:122.083px;fill:white;">Doc<tspan x="9133.46px 9209.39px " y="6634.36px 6634.36px ">ke</tspan>r</text>
            </g>
        </g>
    </g>
</svg>
