<?xml version="1.0" encoding="UTF-8" standalone="no"?>
<!DOCTYPE svg PUBLIC "-//W3C//DTD SVG 1.1//EN" "http://www.w3.org/Graphics/SVG/1.1/DTD/svg11.dtd">
<svg width="100%" height="100%" viewBox="0 0 1165 355" version="1.1" xmlns="http://www.w3.org/2000/svg" xmlns:xlink="http://www.w3.org/1999/xlink" xml:space="preserve" xmlns:serif="http://www.serif.com/" style="fill-rule:evenodd;clip-rule:evenodd;stroke-linejoin:round;stroke-miterlimit:2;">
    <g transform="matrix(1,0,0,1,-420,-822.976)">
        <g transform="matrix(1,0,0,1,522.882,1020.55)">
            <path d="M0,28.782L12.559,9.281C18.643,0.233 30.109,-17.707 38.299,-24.026C40.561,-25.508 42.667,-25.586 44.695,-24.649C53.12,-20.281 65.131,-1.327 71.215,8.268L83.227,-12.168C73.244,-27.379 59.281,-46.801 41.498,-46.801C29.953,-46.801 19.579,-36.583 10.608,-25.04L-0.078,-10.219L-0.078,-10.297L-12.636,9.281C-25.116,28.704 -37.752,47.969 -46.411,53.273L-46.411,53.195C-48.516,53.742 -50.623,53.742 -52.806,53.195C-58.189,50.231 -62.323,45.006 -65.365,39.234C-60.762,51.557 -54.833,63.96 -46.645,75.583C-30.342,72.54 -14.898,51.636 0,28.782M135.721,48.126C126.986,50.309 116.769,38.921 106.393,23.867L96.099,8.032L83.928,28.157L94.538,43.446L94.538,43.524C107.876,60.996 122.541,73.164 140.714,68.717C144.614,67.781 148.279,66.612 151.713,65.207C161.852,46.488 168.637,28.313 170.277,10.997C168.562,26.987 159.589,39.156 143.834,45.552L137.517,47.657C136.893,47.892 136.345,48.048 135.721,48.126" style="fill:rgb(150,216,216);"/>
        </g>
        <g transform="matrix(1,0,0,1,618.981,971.413)">
            <path d="M0,57.173C13.882,33.539 36.893,-9.595 52.023,-25.976C74.411,-50.156 74.411,54.6 74.411,54.6C74.411,56.549 74.333,58.265 74.178,60.137C72.538,77.454 65.753,95.629 55.614,114.347C65.129,110.136 95.081,95.94 95.549,55.691L95.627,54.522C94.457,-26.054 81.04,-53.978 61.464,-53.744C36.736,-53.353 9.125,-1.249 -12.872,36.972L-24.884,57.408C-30.033,66.065 -46.178,93.288 -54.602,93.288C-60.686,93.288 -78.783,65.831 -83.54,58.422L-96.099,77.923C-76.053,107.718 -54.993,133.147 -25.273,96.174L-12.171,77.298L0,57.173ZM-90.093,169.027C-98.907,164.971 -107.644,159.59 -116.224,152.723C-125.973,145.003 -134.944,135.643 -142.744,124.723C-150.933,113.1 -156.861,100.698 -161.464,88.374C-162.01,87.204 -162.555,86.034 -163.024,84.863C-163.803,82.524 -164.506,80.34 -165.129,78.39C-165.519,77.064 -165.832,75.66 -166.144,74.177C-170.2,55.847 -167.158,31.122 -154.366,18.641C-151.792,16.067 -148.905,14.195 -145.708,13.181C-137.127,14.741 -122.853,36.503 -108.735,58.422L-96.177,38.843C-112.323,14.195 -128.937,-8.192 -146.722,-8.192C-154.443,-7.723 -163.647,-1.951 -169.186,3.508C-175.348,9.672 -179.949,16.692 -182.913,24.569C-188.452,39.467 -190.48,55.847 -188.218,71.603L-182.68,92.898C-158.187,163.722 -94.851,205.61 -22.31,205.61C74.411,205.61 154.753,127.376 154.753,28.626C154.753,-69.189 75.505,-148.437 -22.31,-148.437C-116.457,-148.437 -193.366,-74.961 -198.981,17.783C-191.494,-1.717 -178.78,-8.738 -168.483,-25.195C-146.564,-84.71 -89.391,-127.142 -22.31,-127.142C63.724,-127.142 133.457,-57.41 133.457,28.626C133.457,74.567 113.491,115.909 81.822,144.458C65.986,158.654 47.189,169.728 26.52,176.516L26.909,176.282C-9.285,187.902 -53.275,187.045 -90.794,168.715C-90.561,168.793 -90.327,168.949 -90.093,169.027" style="fill:rgb(48,138,173);"/>
        </g>
        <g transform="matrix(1,0,0,1,567.577,1040.68)">
            <path d="M0,-12.091L0,-44.773C-2.028,-45.709 -4.134,-45.632 -6.396,-44.149L-6.396,-12.091C-13.182,-8.736 -10.843,1.638 -3.197,1.638C4.446,1.638 6.785,-8.736 0,-12.091M95.941,-45.553C88.297,-45.553 85.956,-35.178 92.822,-31.824L92.822,27.534L99.14,25.428L99.14,-31.824C106.002,-35.178 103.584,-45.553 95.941,-45.553M-91.105,33.072L-91.105,-16.771C-84.319,-20.124 -86.659,-30.498 -94.303,-30.498C-101.947,-30.498 -104.365,-20.124 -97.501,-16.771L-97.501,33.072C-95.317,33.618 -93.211,33.618 -91.105,33.072" style="fill:rgb(200,16,46);"/>
        </g>
        <g transform="matrix(1,0,0,1,1241.44,922.742)">
            <path d="M0,155.767C-10.376,155.767 -19.034,153.972 -26.053,150.462C-33.152,146.954 -39.314,142.116 -44.697,135.876L-28.549,120.121C-24.572,124.722 -20.203,128.309 -15.446,130.883C-10.688,133.536 -5.149,134.864 1.013,134.864C7.408,134.864 12.012,133.77 14.819,131.51C17.627,129.325 19.03,126.284 19.03,122.381C19.03,119.261 18.096,116.69 16.066,114.817C14.037,113.022 10.605,111.697 5.771,110.996L-4.993,109.59C-16.693,108.032 -25.663,104.675 -31.747,99.53C-37.912,94.38 -41.03,86.813 -41.03,76.83C-41.03,71.604 -40.016,66.844 -38.067,62.634C-36.194,58.42 -33.387,54.832 -29.799,51.869C-26.212,48.905 -21.92,46.645 -16.85,45.083C-11.859,43.445 -6.243,42.665 0,42.665C5.224,42.665 9.904,43.055 13.959,43.834C18.096,44.616 21.761,45.707 25.036,47.113C28.39,48.593 31.432,50.388 34.162,52.493C36.97,54.677 39.622,57.018 42.274,59.67L26.753,75.191C23.556,71.915 19.731,69.108 15.365,66.922C10.918,64.663 6.083,63.569 0.856,63.569C-4.993,63.569 -9.129,64.663 -11.701,66.689C-14.275,68.795 -15.524,71.448 -15.524,74.801C-15.524,78.389 -14.431,81.12 -12.326,82.993C-10.143,84.788 -6.555,86.19 -1.406,86.969L9.515,88.453C32.837,91.728 44.537,102.415 44.537,120.355C44.537,125.581 43.446,130.416 41.34,134.707C39.154,139.075 36.19,142.821 32.291,145.94C28.468,149.06 23.789,151.398 18.329,153.193C12.868,154.91 6.785,155.767 0,155.767M-92.588,135.252L-93.603,135.252C-94.539,137.983 -95.865,140.635 -97.425,143.054C-98.985,145.392 -101.013,147.577 -103.431,149.528C-105.85,151.478 -108.735,152.959 -112.167,154.127C-115.521,155.221 -119.421,155.767 -123.867,155.767C-135.022,155.767 -143.603,152.102 -149.53,144.768C-155.458,137.438 -158.422,127.063 -158.422,113.489L-158.422,45.162L-131.902,45.162L-131.902,110.837C-131.902,118.248 -130.497,123.943 -127.533,127.919C-124.646,131.822 -120.045,133.77 -113.727,133.77C-111.075,133.77 -108.5,133.457 -105.928,132.756C-103.354,132.055 -101.091,131.039 -99.219,129.559C-97.27,128.076 -95.709,126.284 -94.461,124.176C-93.213,121.992 -92.588,119.496 -92.588,116.609L-92.588,45.162L-66.068,45.162L-66.068,153.271L-92.588,153.271L-92.588,135.252ZM-191.571,153.271C-200.699,153.271 -207.328,151.008 -211.618,146.408C-215.908,141.882 -218.093,135.487 -218.093,127.14L-218.093,0L-191.571,0L-191.571,131.899L-177.298,131.899L-177.298,153.271L-191.571,153.271ZM-298.2,136.5C-292.272,136.5 -287.201,135.175 -283.067,132.601C-278.933,129.949 -276.905,126.127 -276.905,121.056L-276.905,106.86L-293.832,106.86C-307.638,106.86 -314.58,111.229 -314.58,120.043L-314.58,123.553C-314.58,127.919 -313.176,131.196 -310.29,133.302C-307.481,135.409 -303.425,136.5 -298.2,136.5M-254.286,153.271C-260.136,153.271 -264.737,151.553 -268.091,148.2C-271.444,144.846 -273.552,140.324 -274.409,134.629L-275.657,134.629C-277.451,141.649 -281.117,146.954 -286.655,150.462C-292.116,153.972 -298.979,155.767 -307.092,155.767C-318.167,155.767 -326.669,152.881 -332.598,147.109C-338.525,141.259 -341.489,133.614 -341.489,123.943C-341.489,112.788 -337.513,104.52 -329.478,99.062C-321.444,93.679 -310.056,90.949 -295.313,90.949L-276.905,90.949L-276.905,83.07C-276.905,76.987 -278.465,72.305 -281.663,68.952C-284.783,65.676 -289.932,64.037 -296.952,64.037C-303.191,64.037 -308.183,65.364 -312.005,68.016C-315.75,70.746 -319.025,73.944 -321.6,77.688L-337.355,63.491C-333.378,57.251 -327.996,52.258 -321.444,48.438C-314.813,44.616 -306,42.665 -295.08,42.665C-280.494,42.665 -269.339,46.019 -261.773,52.573C-254.206,59.203 -250.385,68.717 -250.385,81.12L-250.385,131.899L-239.62,131.899L-239.62,153.271L-254.286,153.271ZM-377.526,153.271C-386.652,153.271 -393.595,150.852 -398.352,146.174C-403.111,141.414 -405.45,134.629 -405.45,125.816L-405.45,66.534L-421.44,66.534L-421.44,45.162L-413.172,45.162C-409.117,45.162 -406.387,44.227 -404.982,42.354C-403.501,40.481 -402.798,37.672 -402.798,34.007L-402.798,15.522L-379.008,15.522L-379.008,45.162L-356.856,45.162L-356.856,66.534L-379.008,66.534L-379.008,131.899L-358.494,131.899L-358.494,153.271L-377.526,153.271Z" style="fill:rgb(0,20,37);fill-rule:nonzero;"/>
        </g>
        <g transform="matrix(1,0,0,1,1533.63,942.862)">
            <path d="M0,114.275C7.097,114.275 12.558,112.169 16.612,107.877C20.592,103.587 22.62,97.348 22.62,89.002L22.62,68.956C22.62,60.764 20.592,54.602 16.612,50.314C12.558,46.022 7.097,43.916 0,43.916C-6.863,43.916 -12.323,46.022 -16.304,50.314C-20.358,54.602 -22.31,60.764 -22.31,68.956L-22.31,89.002C-22.31,97.348 -20.358,103.587 -16.304,107.877C-12.323,112.169 -6.863,114.275 0,114.275M0,135.646C-7.724,135.646 -14.664,134.319 -20.826,131.669C-26.91,129.094 -32.214,125.271 -36.506,120.281C-40.872,115.366 -44.227,109.36 -46.567,102.417C-48.907,95.397 -50.076,87.596 -50.076,78.86C-50.076,70.202 -48.907,62.404 -46.567,55.46C-44.227,48.596 -40.872,42.669 -36.506,37.754C-32.214,32.841 -26.91,29.096 -20.826,26.524C-14.664,23.872 -7.724,22.545 0,22.545C7.723,22.545 14.741,23.872 20.981,26.524C27.144,29.096 32.448,32.841 36.814,37.754C41.106,42.669 44.46,48.596 46.8,55.46C49.141,62.404 50.388,70.202 50.388,78.86C50.388,87.596 49.141,95.397 46.8,102.417C44.46,109.36 41.106,115.366 36.814,120.281C32.448,125.271 27.144,129.094 20.981,131.669C14.741,134.319 7.723,135.646 0,135.646M-99.997,25.041L-73.476,25.041L-73.476,133.15L-99.997,133.15L-99.997,25.041ZM-86.737,9.286C-92.276,9.286 -96.253,8.036 -98.672,5.54C-101.091,3.122 -102.259,-0.077 -102.259,-3.976L-102.259,-8.109C-102.259,-11.933 -101.091,-15.13 -98.672,-17.626C-96.253,-20.121 -92.276,-21.371 -86.737,-21.371C-81.355,-21.371 -77.456,-20.121 -74.96,-17.626C-72.464,-15.13 -71.217,-11.933 -71.217,-8.109L-71.217,-3.976C-71.217,-0.077 -72.464,3.122 -74.96,5.54C-77.456,8.036 -81.355,9.286 -86.737,9.286M-175.582,113.649C-168.717,113.649 -163.101,111.389 -158.812,106.864C-154.521,102.26 -152.413,96.176 -152.413,88.379L-152.413,69.812C-152.413,62.014 -154.521,55.852 -158.812,51.249C-163.101,46.646 -168.717,44.308 -175.582,44.308C-181.978,44.308 -187.202,45.867 -191.415,49.064C-195.626,52.262 -197.733,56.475 -197.733,61.702L-197.733,96.098C-197.733,101.714 -195.626,106.085 -191.415,109.126C-187.202,112.169 -181.978,113.649 -175.582,113.649M-224.253,-20.121L-197.733,-20.121L-197.733,42.825L-196.954,42.825C-195.003,36.663 -191.337,31.671 -185.955,28.083C-180.572,24.418 -174.255,22.545 -167.08,22.545C-153.273,22.545 -142.742,27.46 -135.489,37.13C-128.233,46.882 -124.646,60.764 -124.646,78.86C-124.646,97.114 -128.233,111.155 -135.489,120.904C-142.742,130.731 -153.273,135.646 -167.08,135.646C-174.255,135.646 -180.495,133.773 -185.877,130.03C-191.182,126.287 -194.847,121.372 -196.954,115.131L-197.733,115.131L-197.733,133.15L-224.253,133.15L-224.253,-20.121Z" style="fill:rgb(48,138,173);fill-rule:nonzero;"/>
        </g>
    </g>
</svg>
